<svg xmlns="http://www.w3.org/2000/svg" xmlns:xlink="http://www.w3.org/1999/xlink" width="500" zoomAndPan="magnify" viewBox="0 0 375 374.999991" height="500" preserveAspectRatio="xMidYMid meet" version="1.0"><defs><clipPath id="f643cb2d03"><path d="M 154 221 L 216 221 L 216 259 L 154 259 Z M 154 221 " clip-rule="nonzero"/></clipPath><clipPath id="def3c1fe74"><path d="M 165.714844 57.765625 L 303.621094 146.984375 L 209.515625 292.445312 L 71.609375 203.230469 Z M 165.714844 57.765625 " clip-rule="nonzero"/></clipPath><clipPath id="c7afba2467"><path d="M 165.714844 57.765625 L 303.621094 146.984375 L 209.515625 292.445312 L 71.609375 203.230469 Z M 165.714844 57.765625 " clip-rule="nonzero"/></clipPath><clipPath id="ca6bbc3b5e"><path d="M 165.714844 57.765625 L 303.621094 146.984375 L 209.515625 292.445312 L 71.609375 203.230469 Z M 165.714844 57.765625 " clip-rule="nonzero"/></clipPath><clipPath id="7772beb3e7"><path d="M 157 220 L 183 220 L 183 235 L 157 235 Z M 157 220 " clip-rule="nonzero"/></clipPath><clipPath id="60e4e95c8e"><path d="M 165.714844 57.765625 L 303.621094 146.984375 L 209.515625 292.445312 L 71.609375 203.230469 Z M 165.714844 57.765625 " clip-rule="nonzero"/></clipPath><clipPath id="edcfd8b5bb"><path d="M 165.714844 57.765625 L 303.621094 146.984375 L 209.515625 292.445312 L 71.609375 203.230469 Z M 165.714844 57.765625 " clip-rule="nonzero"/></clipPath><clipPath id="db0908855d"><path d="M 165.714844 57.765625 L 303.621094 146.984375 L 209.515625 292.445312 L 71.609375 203.230469 Z M 165.714844 57.765625 " clip-rule="nonzero"/></clipPath><clipPath id="b43d5079c1"><path d="M 163 221 L 183 221 L 183 235 L 163 235 Z M 163 221 " clip-rule="nonzero"/></clipPath><clipPath id="5b36a2f92f"><path d="M 165.714844 57.765625 L 303.621094 146.984375 L 209.515625 292.445312 L 71.609375 203.230469 Z M 165.714844 57.765625 " clip-rule="nonzero"/></clipPath><clipPath id="65b2ce7cc9"><path d="M 165.714844 57.765625 L 303.621094 146.984375 L 209.515625 292.445312 L 71.609375 203.230469 Z M 165.714844 57.765625 " clip-rule="nonzero"/></clipPath><clipPath id="be0d7266ba"><path d="M 165.714844 57.765625 L 303.621094 146.984375 L 209.515625 292.445312 L 71.609375 203.230469 Z M 165.714844 57.765625 " clip-rule="nonzero"/></clipPath><clipPath id="fd2968321b"><path d="M 169 223 L 183 223 L 183 234 L 169 234 Z M 169 223 " clip-rule="nonzero"/></clipPath><clipPath id="00eda78fb6"><path d="M 165.714844 57.765625 L 303.621094 146.984375 L 209.515625 292.445312 L 71.609375 203.230469 Z M 165.714844 57.765625 " clip-rule="nonzero"/></clipPath><clipPath id="e48cf297b8"><path d="M 165.714844 57.765625 L 303.621094 146.984375 L 209.515625 292.445312 L 71.609375 203.230469 Z M 165.714844 57.765625 " clip-rule="nonzero"/></clipPath><clipPath id="37b56f3b8e"><path d="M 165.714844 57.765625 L 303.621094 146.984375 L 209.515625 292.445312 L 71.609375 203.230469 Z M 165.714844 57.765625 " clip-rule="nonzero"/></clipPath><clipPath id="e69a4c5da7"><path d="M 212 186 L 274 186 L 274 229 L 212 229 Z M 212 186 " clip-rule="nonzero"/></clipPath><clipPath id="5d119ed1fd"><path d="M 165.714844 57.765625 L 303.621094 146.984375 L 209.515625 292.445312 L 71.609375 203.230469 Z M 165.714844 57.765625 " clip-rule="nonzero"/></clipPath><clipPath id="7e9448e35e"><path d="M 165.714844 57.765625 L 303.621094 146.984375 L 209.515625 292.445312 L 71.609375 203.230469 Z M 165.714844 57.765625 " clip-rule="nonzero"/></clipPath><clipPath id="6fcb44bc08"><path d="M 165.714844 57.765625 L 303.621094 146.984375 L 209.515625 292.445312 L 71.609375 203.230469 Z M 165.714844 57.765625 " clip-rule="nonzero"/></clipPath><clipPath id="3ac32a67b1"><path d="M 212 209 L 237 209 L 237 225 L 212 225 Z M 212 209 " clip-rule="nonzero"/></clipPath><clipPath id="2f02e35fd1"><path d="M 165.714844 57.765625 L 303.621094 146.984375 L 209.515625 292.445312 L 71.609375 203.230469 Z M 165.714844 57.765625 " clip-rule="nonzero"/></clipPath><clipPath id="c8210b2ddf"><path d="M 165.714844 57.765625 L 303.621094 146.984375 L 209.515625 292.445312 L 71.609375 203.230469 Z M 165.714844 57.765625 " clip-rule="nonzero"/></clipPath><clipPath id="e20595a47b"><path d="M 165.714844 57.765625 L 303.621094 146.984375 L 209.515625 292.445312 L 71.609375 203.230469 Z M 165.714844 57.765625 " clip-rule="nonzero"/></clipPath><clipPath id="9e651e44b5"><path d="M 215 209 L 237 209 L 237 220 L 215 220 Z M 215 209 " clip-rule="nonzero"/></clipPath><clipPath id="294a98a918"><path d="M 165.714844 57.765625 L 303.621094 146.984375 L 209.515625 292.445312 L 71.609375 203.230469 Z M 165.714844 57.765625 " clip-rule="nonzero"/></clipPath><clipPath id="132ef82e68"><path d="M 165.714844 57.765625 L 303.621094 146.984375 L 209.515625 292.445312 L 71.609375 203.230469 Z M 165.714844 57.765625 " clip-rule="nonzero"/></clipPath><clipPath id="19bb455b06"><path d="M 165.714844 57.765625 L 303.621094 146.984375 L 209.515625 292.445312 L 71.609375 203.230469 Z M 165.714844 57.765625 " clip-rule="nonzero"/></clipPath><clipPath id="7cbfbfb12d"><path d="M 220 208 L 236 208 L 236 216 L 220 216 Z M 220 208 " clip-rule="nonzero"/></clipPath><clipPath id="cc063664f8"><path d="M 165.714844 57.765625 L 303.621094 146.984375 L 209.515625 292.445312 L 71.609375 203.230469 Z M 165.714844 57.765625 " clip-rule="nonzero"/></clipPath><clipPath id="65e9fe4860"><path d="M 165.714844 57.765625 L 303.621094 146.984375 L 209.515625 292.445312 L 71.609375 203.230469 Z M 165.714844 57.765625 " clip-rule="nonzero"/></clipPath><clipPath id="fdc410042d"><path d="M 165.714844 57.765625 L 303.621094 146.984375 L 209.515625 292.445312 L 71.609375 203.230469 Z M 165.714844 57.765625 " clip-rule="nonzero"/></clipPath><clipPath id="6240a99c3f"><path d="M 225 109 L 257 109 L 257 180 L 225 180 Z M 225 109 " clip-rule="nonzero"/></clipPath><clipPath id="9024312667"><path d="M 165.714844 57.765625 L 303.621094 146.984375 L 209.515625 292.445312 L 71.609375 203.230469 Z M 165.714844 57.765625 " clip-rule="nonzero"/></clipPath><clipPath id="802e947736"><path d="M 165.714844 57.765625 L 303.621094 146.984375 L 209.515625 292.445312 L 71.609375 203.230469 Z M 165.714844 57.765625 " clip-rule="nonzero"/></clipPath><clipPath id="ea480e5243"><path d="M 165.714844 57.765625 L 303.621094 146.984375 L 209.515625 292.445312 L 71.609375 203.230469 Z M 165.714844 57.765625 " clip-rule="nonzero"/></clipPath><clipPath id="d5c4b68fb4"><path d="M 241 149 L 247 149 L 247 178 L 241 178 Z M 241 149 " clip-rule="nonzero"/></clipPath><clipPath id="159e7d2e81"><path d="M 165.714844 57.765625 L 303.621094 146.984375 L 209.515625 292.445312 L 71.609375 203.230469 Z M 165.714844 57.765625 " clip-rule="nonzero"/></clipPath><clipPath id="3da96d2e48"><path d="M 165.714844 57.765625 L 303.621094 146.984375 L 209.515625 292.445312 L 71.609375 203.230469 Z M 165.714844 57.765625 " clip-rule="nonzero"/></clipPath><clipPath id="6a9f5b0149"><path d="M 165.714844 57.765625 L 303.621094 146.984375 L 209.515625 292.445312 L 71.609375 203.230469 Z M 165.714844 57.765625 " clip-rule="nonzero"/></clipPath><clipPath id="7e36e51e36"><path d="M 239 149 L 244 149 L 244 173 L 239 173 Z M 239 149 " clip-rule="nonzero"/></clipPath><clipPath id="1a9908b255"><path d="M 165.714844 57.765625 L 303.621094 146.984375 L 209.515625 292.445312 L 71.609375 203.230469 Z M 165.714844 57.765625 " clip-rule="nonzero"/></clipPath><clipPath id="aa8d974170"><path d="M 165.714844 57.765625 L 303.621094 146.984375 L 209.515625 292.445312 L 71.609375 203.230469 Z M 165.714844 57.765625 " clip-rule="nonzero"/></clipPath><clipPath id="7aa37f89ed"><path d="M 165.714844 57.765625 L 303.621094 146.984375 L 209.515625 292.445312 L 71.609375 203.230469 Z M 165.714844 57.765625 " clip-rule="nonzero"/></clipPath><clipPath id="27bf6a517e"><path d="M 238 150 L 243 150 L 243 167 L 238 167 Z M 238 150 " clip-rule="nonzero"/></clipPath><clipPath id="a55d1d7458"><path d="M 165.714844 57.765625 L 303.621094 146.984375 L 209.515625 292.445312 L 71.609375 203.230469 Z M 165.714844 57.765625 " clip-rule="nonzero"/></clipPath><clipPath id="79cf1c7fd0"><path d="M 165.714844 57.765625 L 303.621094 146.984375 L 209.515625 292.445312 L 71.609375 203.230469 Z M 165.714844 57.765625 " clip-rule="nonzero"/></clipPath><clipPath id="9b963577c4"><path d="M 165.714844 57.765625 L 303.621094 146.984375 L 209.515625 292.445312 L 71.609375 203.230469 Z M 165.714844 57.765625 " clip-rule="nonzero"/></clipPath><clipPath id="f6fa881477"><path d="M 159 91 L 222 91 L 222 129 L 159 129 Z M 159 91 " clip-rule="nonzero"/></clipPath><clipPath id="71e2ff7bfc"><path d="M 165.714844 57.765625 L 303.621094 146.984375 L 209.515625 292.445312 L 71.609375 203.230469 Z M 165.714844 57.765625 " clip-rule="nonzero"/></clipPath><clipPath id="d488157878"><path d="M 165.714844 57.765625 L 303.621094 146.984375 L 209.515625 292.445312 L 71.609375 203.230469 Z M 165.714844 57.765625 " clip-rule="nonzero"/></clipPath><clipPath id="5de5b4901f"><path d="M 165.714844 57.765625 L 303.621094 146.984375 L 209.515625 292.445312 L 71.609375 203.230469 Z M 165.714844 57.765625 " clip-rule="nonzero"/></clipPath><clipPath id="ffad4749a1"><path d="M 192 115 L 218 115 L 218 130 L 192 130 Z M 192 115 " clip-rule="nonzero"/></clipPath><clipPath id="544c2af1a6"><path d="M 165.714844 57.765625 L 303.621094 146.984375 L 209.515625 292.445312 L 71.609375 203.230469 Z M 165.714844 57.765625 " clip-rule="nonzero"/></clipPath><clipPath id="bfb6b0415d"><path d="M 165.714844 57.765625 L 303.621094 146.984375 L 209.515625 292.445312 L 71.609375 203.230469 Z M 165.714844 57.765625 " clip-rule="nonzero"/></clipPath><clipPath id="a7854ea7d3"><path d="M 165.714844 57.765625 L 303.621094 146.984375 L 209.515625 292.445312 L 71.609375 203.230469 Z M 165.714844 57.765625 " clip-rule="nonzero"/></clipPath><clipPath id="02c1194db1"><path d="M 192 115 L 212 115 L 212 129 L 192 129 Z M 192 115 " clip-rule="nonzero"/></clipPath><clipPath id="0b16d22615"><path d="M 165.714844 57.765625 L 303.621094 146.984375 L 209.515625 292.445312 L 71.609375 203.230469 Z M 165.714844 57.765625 " clip-rule="nonzero"/></clipPath><clipPath id="2300cad1d7"><path d="M 165.714844 57.765625 L 303.621094 146.984375 L 209.515625 292.445312 L 71.609375 203.230469 Z M 165.714844 57.765625 " clip-rule="nonzero"/></clipPath><clipPath id="028b580c3b"><path d="M 165.714844 57.765625 L 303.621094 146.984375 L 209.515625 292.445312 L 71.609375 203.230469 Z M 165.714844 57.765625 " clip-rule="nonzero"/></clipPath><clipPath id="f5df3fedc6"><path d="M 192 116 L 206 116 L 206 127 L 192 127 Z M 192 116 " clip-rule="nonzero"/></clipPath><clipPath id="9ec795e429"><path d="M 165.714844 57.765625 L 303.621094 146.984375 L 209.515625 292.445312 L 71.609375 203.230469 Z M 165.714844 57.765625 " clip-rule="nonzero"/></clipPath><clipPath id="dcd5047f38"><path d="M 165.714844 57.765625 L 303.621094 146.984375 L 209.515625 292.445312 L 71.609375 203.230469 Z M 165.714844 57.765625 " clip-rule="nonzero"/></clipPath><clipPath id="e622c36ea6"><path d="M 165.714844 57.765625 L 303.621094 146.984375 L 209.515625 292.445312 L 71.609375 203.230469 Z M 165.714844 57.765625 " clip-rule="nonzero"/></clipPath><clipPath id="0a617835de"><path d="M 101 121 L 163 121 L 163 164 L 101 164 Z M 101 121 " clip-rule="nonzero"/></clipPath><clipPath id="4ee5d84b1e"><path d="M 165.714844 57.765625 L 303.621094 146.984375 L 209.515625 292.445312 L 71.609375 203.230469 Z M 165.714844 57.765625 " clip-rule="nonzero"/></clipPath><clipPath id="6c1c9d5f0e"><path d="M 165.714844 57.765625 L 303.621094 146.984375 L 209.515625 292.445312 L 71.609375 203.230469 Z M 165.714844 57.765625 " clip-rule="nonzero"/></clipPath><clipPath id="e2e81cd936"><path d="M 165.714844 57.765625 L 303.621094 146.984375 L 209.515625 292.445312 L 71.609375 203.230469 Z M 165.714844 57.765625 " clip-rule="nonzero"/></clipPath><clipPath id="180d4be3bc"><path d="M 138 125 L 163 125 L 163 141 L 138 141 Z M 138 125 " clip-rule="nonzero"/></clipPath><clipPath id="013809f385"><path d="M 165.714844 57.765625 L 303.621094 146.984375 L 209.515625 292.445312 L 71.609375 203.230469 Z M 165.714844 57.765625 " clip-rule="nonzero"/></clipPath><clipPath id="812742331c"><path d="M 165.714844 57.765625 L 303.621094 146.984375 L 209.515625 292.445312 L 71.609375 203.230469 Z M 165.714844 57.765625 " clip-rule="nonzero"/></clipPath><clipPath id="2dc2e09786"><path d="M 165.714844 57.765625 L 303.621094 146.984375 L 209.515625 292.445312 L 71.609375 203.230469 Z M 165.714844 57.765625 " clip-rule="nonzero"/></clipPath><clipPath id="798fbfab63"><path d="M 138 130 L 160 130 L 160 142 L 138 142 Z M 138 130 " clip-rule="nonzero"/></clipPath><clipPath id="c2bc77523c"><path d="M 165.714844 57.765625 L 303.621094 146.984375 L 209.515625 292.445312 L 71.609375 203.230469 Z M 165.714844 57.765625 " clip-rule="nonzero"/></clipPath><clipPath id="3cd52f379e"><path d="M 165.714844 57.765625 L 303.621094 146.984375 L 209.515625 292.445312 L 71.609375 203.230469 Z M 165.714844 57.765625 " clip-rule="nonzero"/></clipPath><clipPath id="d5bc58ddc2"><path d="M 165.714844 57.765625 L 303.621094 146.984375 L 209.515625 292.445312 L 71.609375 203.230469 Z M 165.714844 57.765625 " clip-rule="nonzero"/></clipPath><clipPath id="d200ac4c02"><path d="M 139 134 L 155 134 L 155 142 L 139 142 Z M 139 134 " clip-rule="nonzero"/></clipPath><clipPath id="1515476cd1"><path d="M 165.714844 57.765625 L 303.621094 146.984375 L 209.515625 292.445312 L 71.609375 203.230469 Z M 165.714844 57.765625 " clip-rule="nonzero"/></clipPath><clipPath id="e6abaabc9e"><path d="M 165.714844 57.765625 L 303.621094 146.984375 L 209.515625 292.445312 L 71.609375 203.230469 Z M 165.714844 57.765625 " clip-rule="nonzero"/></clipPath><clipPath id="489b998f78"><path d="M 165.714844 57.765625 L 303.621094 146.984375 L 209.515625 292.445312 L 71.609375 203.230469 Z M 165.714844 57.765625 " clip-rule="nonzero"/></clipPath><clipPath id="f4215cd3eb"><path d="M 118 170 L 150 170 L 150 241 L 118 241 Z M 118 170 " clip-rule="nonzero"/></clipPath><clipPath id="d6ee1ce223"><path d="M 165.714844 57.765625 L 303.621094 146.984375 L 209.515625 292.445312 L 71.609375 203.230469 Z M 165.714844 57.765625 " clip-rule="nonzero"/></clipPath><clipPath id="c80763d47d"><path d="M 165.714844 57.765625 L 303.621094 146.984375 L 209.515625 292.445312 L 71.609375 203.230469 Z M 165.714844 57.765625 " clip-rule="nonzero"/></clipPath><clipPath id="536c5f0c16"><path d="M 165.714844 57.765625 L 303.621094 146.984375 L 209.515625 292.445312 L 71.609375 203.230469 Z M 165.714844 57.765625 " clip-rule="nonzero"/></clipPath><clipPath id="934b2a2429"><path d="M 129 172 L 134 172 L 134 201 L 129 201 Z M 129 172 " clip-rule="nonzero"/></clipPath><clipPath id="98b39c76bf"><path d="M 165.714844 57.765625 L 303.621094 146.984375 L 209.515625 292.445312 L 71.609375 203.230469 Z M 165.714844 57.765625 " clip-rule="nonzero"/></clipPath><clipPath id="1599f2fefa"><path d="M 165.714844 57.765625 L 303.621094 146.984375 L 209.515625 292.445312 L 71.609375 203.230469 Z M 165.714844 57.765625 " clip-rule="nonzero"/></clipPath><clipPath id="b595c59253"><path d="M 165.714844 57.765625 L 303.621094 146.984375 L 209.515625 292.445312 L 71.609375 203.230469 Z M 165.714844 57.765625 " clip-rule="nonzero"/></clipPath><clipPath id="e7168cd2cf"><path d="M 131 177 L 136 177 L 136 201 L 131 201 Z M 131 177 " clip-rule="nonzero"/></clipPath><clipPath id="3cf3c2c622"><path d="M 165.714844 57.765625 L 303.621094 146.984375 L 209.515625 292.445312 L 71.609375 203.230469 Z M 165.714844 57.765625 " clip-rule="nonzero"/></clipPath><clipPath id="7fe9fb6806"><path d="M 165.714844 57.765625 L 303.621094 146.984375 L 209.515625 292.445312 L 71.609375 203.230469 Z M 165.714844 57.765625 " clip-rule="nonzero"/></clipPath><clipPath id="ac1389ea90"><path d="M 165.714844 57.765625 L 303.621094 146.984375 L 209.515625 292.445312 L 71.609375 203.230469 Z M 165.714844 57.765625 " clip-rule="nonzero"/></clipPath><clipPath id="ba8554026b"><path d="M 132 183 L 137 183 L 137 200 L 132 200 Z M 132 183 " clip-rule="nonzero"/></clipPath><clipPath id="fb49eb510a"><path d="M 165.714844 57.765625 L 303.621094 146.984375 L 209.515625 292.445312 L 71.609375 203.230469 Z M 165.714844 57.765625 " clip-rule="nonzero"/></clipPath><clipPath id="acd691251f"><path d="M 165.714844 57.765625 L 303.621094 146.984375 L 209.515625 292.445312 L 71.609375 203.230469 Z M 165.714844 57.765625 " clip-rule="nonzero"/></clipPath><clipPath id="60415caf20"><path d="M 165.714844 57.765625 L 303.621094 146.984375 L 209.515625 292.445312 L 71.609375 203.230469 Z M 165.714844 57.765625 " clip-rule="nonzero"/></clipPath></defs><g clip-path="url(#f643cb2d03)"><g clip-path="url(#def3c1fe74)"><g clip-path="url(#c7afba2467)"><g clip-path="url(#ca6bbc3b5e)"><path fill="#1b75bc" d="M 215.082031 258.480469 C 215.082031 258.480469 210.699219 249.328125 178.007812 246.804688 C 175.394531 246.601562 172.824219 245.929688 170.597656 244.542969 C 162.269531 239.371094 157.132812 230.621094 154.296875 224.238281 C 153.722656 222.9375 155.417969 221.859375 156.363281 222.921875 C 163.078125 230.464844 175.835938 239.59375 192.980469 232.703125 C 192.980469 232.703125 181.265625 230.609375 178.148438 223.242188 C 177.792969 222.394531 178.613281 221.738281 179.511719 221.90625 C 185.105469 222.945312 186.507812 222.484375 192.65625 222.996094 C 200.039062 223.609375 217.738281 237.132812 215.082031 258.480469 " fill-opacity="1" fill-rule="nonzero"/></g></g></g></g><g clip-path="url(#7772beb3e7)"><g clip-path="url(#60e4e95c8e)"><g clip-path="url(#edcfd8b5bb)"><g clip-path="url(#db0908855d)"><path fill="#1b75bc" d="M 182.390625 234.648438 C 182.390625 234.648438 169.070312 236.429688 157.808594 222.453125 C 157.210938 221.714844 157.851562 220.601562 158.78125 220.789062 C 159.601562 220.953125 160.835938 221.78125 162.847656 223.921875 C 167.957031 229.355469 175.78125 234.726562 182.390625 234.648438 " fill-opacity="1" fill-rule="nonzero"/></g></g></g></g><g clip-path="url(#b43d5079c1)"><g clip-path="url(#5b36a2f92f)"><g clip-path="url(#65b2ce7cc9)"><g clip-path="url(#be0d7266ba)"><path fill="#1b75bc" d="M 182.585938 234.246094 C 182.585938 234.246094 171.671875 234.8125 163.460938 222.75 C 163.027344 222.109375 163.617188 221.25 164.359375 221.464844 C 165.011719 221.648438 165.960938 222.402344 167.449219 224.269531 C 171.234375 229.007812 177.226562 233.875 182.585938 234.246094 " fill-opacity="1" fill-rule="nonzero"/></g></g></g></g><g clip-path="url(#fd2968321b)"><g clip-path="url(#00eda78fb6)"><g clip-path="url(#e48cf297b8)"><g clip-path="url(#37b56f3b8e)"><path fill="#1b75bc" d="M 182.585938 233.730469 C 182.585938 233.730469 174.628906 233.542969 169.328125 224.332031 C 169.046875 223.84375 169.523438 223.253906 170.054688 223.449219 C 170.515625 223.621094 171.160156 224.21875 172.140625 225.652344 C 174.632812 229.304688 178.710938 233.164062 182.585938 233.730469 " fill-opacity="1" fill-rule="nonzero"/></g></g></g></g><g clip-path="url(#e69a4c5da7)"><g clip-path="url(#5d119ed1fd)"><g clip-path="url(#7e9448e35e)"><g clip-path="url(#6fcb44bc08)"><path fill="#fec51c" d="M 273.574219 193.152344 C 273.574219 193.152344 263.457031 192.351562 244.972656 219.375 C 243.492188 221.539062 241.632812 223.421875 239.320312 224.65625 C 230.683594 229.269531 220.539062 229.328125 213.59375 228.578125 C 212.179688 228.425781 212.089844 226.414062 213.484375 226.128906 C 223.367188 224.097656 237.640625 217.640625 240.214844 199.351562 C 240.214844 199.351562 232.558594 208.4375 224.621094 207.4375 C 223.710938 207.324219 223.546875 206.285156 224.144531 205.585938 C 227.832031 201.269531 228.132812 199.824219 231.640625 194.761719 C 235.851562 188.679688 256.398438 180.148438 273.574219 193.152344 " fill-opacity="1" fill-rule="nonzero"/></g></g></g></g><g clip-path="url(#3ac32a67b1)"><g clip-path="url(#2f02e35fd1)"><g clip-path="url(#c8210b2ddf)"><g clip-path="url(#e20595a47b)"><path fill="#fec51c" d="M 236.621094 209.488281 C 236.621094 209.488281 231.523438 221.910156 213.800781 224.644531 C 212.859375 224.792969 212.214844 223.679688 212.839844 222.964844 C 213.390625 222.339844 214.726562 221.691406 217.578125 221.019531 C 224.839844 219.324219 233.394531 215.246094 236.621094 209.488281 " fill-opacity="1" fill-rule="nonzero"/></g></g></g></g><g clip-path="url(#9e651e44b5)"><g clip-path="url(#294a98a918)"><g clip-path="url(#132ef82e68)"><g clip-path="url(#19bb455b06)"><path fill="#fec51c" d="M 236.367188 209.117188 C 236.367188 209.117188 231.421875 218.847656 216.875 219.902344 C 216.101562 219.957031 215.652344 219.015625 216.207031 218.480469 C 216.691406 218.007812 217.816406 217.566406 220.175781 217.210938 C 226.171875 216.3125 233.375 213.570312 236.367188 209.117188 " fill-opacity="1" fill-rule="nonzero"/></g></g></g></g><g clip-path="url(#7cbfbfb12d)"><g clip-path="url(#cc063664f8)"><g clip-path="url(#65e9fe4860)"><g clip-path="url(#fdc410042d)"><path fill="#fec51c" d="M 235.921875 208.859375 C 235.921875 208.859375 231.792969 215.652344 221.167969 215.617188 C 220.605469 215.617188 220.332031 214.90625 220.765625 214.546875 C 221.144531 214.234375 221.984375 213.972656 223.71875 213.847656 C 228.121094 213.523438 233.503906 211.925781 235.921875 208.859375 " fill-opacity="1" fill-rule="nonzero"/></g></g></g></g><g clip-path="url(#6240a99c3f)"><g clip-path="url(#9024312667)"><g clip-path="url(#802e947736)"><g clip-path="url(#ea480e5243)"><path fill="#23a41f" d="M 246.113281 109.773438 C 246.113281 109.773438 240.375 118.125 254.582031 147.675781 C 255.71875 150.039062 256.421875 152.59375 256.339844 155.214844 C 256.03125 165 251.027344 173.808594 246.914062 179.441406 C 246.078125 180.589844 244.289062 179.660156 244.738281 178.308594 C 247.90625 168.738281 249.425781 153.148438 234.855469 141.75 C 234.855469 141.75 238.914062 152.929688 234.089844 159.300781 C 233.535156 160.03125 232.554688 159.648438 232.246094 158.785156 C 230.347656 153.429688 229.242188 152.445312 226.601562 146.867188 C 223.429688 140.171875 226.277344 118.113281 246.113281 109.773438 " fill-opacity="1" fill-rule="nonzero"/></g></g></g></g><g clip-path="url(#d5c4b68fb4)"><g clip-path="url(#159e7d2e81)"><g clip-path="url(#3da96d2e48)"><g clip-path="url(#6a9f5b0149)"><path fill="#23a41f" d="M 241.851562 149.945312 C 241.851562 149.945312 250.074219 160.582031 243.609375 177.292969 C 243.265625 178.179688 241.984375 178.179688 241.675781 177.28125 C 241.40625 176.492188 241.507812 175.007812 242.351562 172.203125 C 244.5 165.070312 245.230469 155.625 241.851562 149.945312 " fill-opacity="1" fill-rule="nonzero"/></g></g></g></g><g clip-path="url(#7e36e51e36)"><g clip-path="url(#1a9908b255)"><g clip-path="url(#aa8d974170)"><g clip-path="url(#7aa37f89ed)"><path fill="#23a41f" d="M 241.402344 149.972656 C 241.402344 149.972656 247.367188 159.132812 241.03125 172.253906 C 240.695312 172.949219 239.652344 172.867188 239.464844 172.117188 C 239.296875 171.460938 239.476562 170.265625 240.347656 168.046875 C 242.554688 162.40625 243.769531 154.796875 241.402344 149.972656 " fill-opacity="1" fill-rule="nonzero"/></g></g></g></g><g clip-path="url(#27bf6a517e)"><g clip-path="url(#a55d1d7458)"><g clip-path="url(#79cf1c7fd0)"><g clip-path="url(#9b963577c4)"><path fill="#23a41f" d="M 240.953125 150.230469 C 240.953125 150.230469 244.785156 157.210938 239.460938 166.386719 C 239.175781 166.875 238.425781 166.753906 238.328125 166.199219 C 238.246094 165.714844 238.441406 164.855469 239.195312 163.292969 C 241.109375 159.320312 242.410156 153.863281 240.953125 150.230469 " fill-opacity="1" fill-rule="nonzero"/></g></g></g></g><g clip-path="url(#f6fa881477)"><g clip-path="url(#71e2ff7bfc)"><g clip-path="url(#d488157878)"><g clip-path="url(#5de5b4901f)"><path fill="#7f2aa9" d="M 160.15625 91.722656 C 160.15625 91.722656 164.535156 100.875 197.226562 103.398438 C 199.84375 103.601562 202.410156 104.273438 204.640625 105.660156 C 212.96875 110.835938 218.105469 119.582031 220.9375 125.964844 C 221.519531 127.265625 219.820312 128.347656 218.875 127.28125 C 212.15625 119.742188 199.402344 110.609375 182.257812 117.5 C 182.257812 117.5 193.972656 119.597656 197.089844 126.964844 C 197.445312 127.808594 196.625 128.46875 195.722656 128.296875 C 190.132812 127.257812 188.730469 127.71875 182.582031 127.210938 C 175.199219 126.597656 157.5 113.070312 160.15625 91.722656 " fill-opacity="1" fill-rule="nonzero"/></g></g></g></g><g clip-path="url(#ffad4749a1)"><g clip-path="url(#544c2af1a6)"><g clip-path="url(#bfb6b0415d)"><g clip-path="url(#a7854ea7d3)"><path fill="#7f2aa9" d="M 192.847656 115.554688 C 192.847656 115.554688 206.167969 113.773438 217.429688 127.75 C 218.027344 128.488281 217.386719 129.601562 216.453125 129.414062 C 215.636719 129.253906 214.402344 128.421875 212.390625 126.285156 C 207.28125 120.847656 199.457031 115.476562 192.847656 115.554688 " fill-opacity="1" fill-rule="nonzero"/></g></g></g></g><g clip-path="url(#02c1194db1)"><g clip-path="url(#0b16d22615)"><g clip-path="url(#2300cad1d7)"><g clip-path="url(#028b580c3b)"><path fill="#7f2aa9" d="M 192.652344 115.960938 C 192.652344 115.960938 203.566406 115.390625 211.777344 127.453125 C 212.210938 128.09375 211.621094 128.953125 210.875 128.738281 C 210.226562 128.554688 209.277344 127.800781 207.789062 125.9375 C 204 121.195312 198.011719 116.332031 192.652344 115.960938 " fill-opacity="1" fill-rule="nonzero"/></g></g></g></g><g clip-path="url(#f5df3fedc6)"><g clip-path="url(#9ec795e429)"><g clip-path="url(#dcd5047f38)"><g clip-path="url(#e622c36ea6)"><path fill="#7f2aa9" d="M 192.652344 116.476562 C 192.652344 116.476562 200.609375 116.660156 205.910156 125.871094 C 206.191406 126.359375 205.710938 126.949219 205.183594 126.753906 C 204.722656 126.585938 204.074219 125.984375 203.097656 124.550781 C 200.605469 120.898438 196.523438 117.039062 192.652344 116.476562 " fill-opacity="1" fill-rule="nonzero"/></g></g></g></g><g clip-path="url(#0a617835de)"><g clip-path="url(#4ee5d84b1e)"><g clip-path="url(#6c1c9d5f0e)"><g clip-path="url(#e2e81cd936)"><path fill="#e53990" d="M 101.664062 157.050781 C 101.664062 157.050781 111.777344 157.851562 130.265625 130.828125 C 131.742188 128.667969 133.605469 126.78125 135.917969 125.546875 C 144.554688 120.9375 154.699219 120.878906 161.640625 121.625 C 163.058594 121.777344 163.148438 123.789062 161.753906 124.074219 C 151.871094 126.105469 137.597656 132.5625 135.023438 150.855469 C 135.023438 150.855469 142.679688 141.769531 150.617188 142.765625 C 151.527344 142.878906 151.691406 143.921875 151.09375 144.617188 C 147.40625 148.933594 147.105469 150.378906 143.597656 155.441406 C 139.386719 161.527344 118.839844 170.058594 101.664062 157.050781 " fill-opacity="1" fill-rule="nonzero"/></g></g></g></g><g clip-path="url(#180d4be3bc)"><g clip-path="url(#013809f385)"><g clip-path="url(#812742331c)"><g clip-path="url(#2dc2e09786)"><path fill="#e53990" d="M 138.617188 140.714844 C 138.617188 140.714844 143.714844 128.296875 161.4375 125.558594 C 162.378906 125.414062 163.023438 126.523438 162.398438 127.238281 C 161.847656 127.863281 160.511719 128.515625 157.65625 129.183594 C 150.398438 130.878906 141.84375 134.957031 138.617188 140.714844 " fill-opacity="1" fill-rule="nonzero"/></g></g></g></g><g clip-path="url(#798fbfab63)"><g clip-path="url(#c2bc77523c)"><g clip-path="url(#3cd52f379e)"><g clip-path="url(#d5bc58ddc2)"><path fill="#e53990" d="M 138.871094 141.089844 C 138.871094 141.089844 143.816406 131.355469 158.363281 130.300781 C 159.136719 130.246094 159.585938 131.1875 159.03125 131.726562 C 158.546875 132.195312 157.421875 132.636719 155.0625 132.992188 C 149.066406 133.890625 141.863281 136.632812 138.871094 141.089844 " fill-opacity="1" fill-rule="nonzero"/></g></g></g></g><g clip-path="url(#d200ac4c02)"><g clip-path="url(#1515476cd1)"><g clip-path="url(#e6abaabc9e)"><g clip-path="url(#489b998f78)"><path fill="#e53990" d="M 139.316406 141.347656 C 139.316406 141.347656 143.445312 134.550781 154.066406 134.585938 C 154.632812 134.585938 154.90625 135.296875 154.472656 135.65625 C 154.09375 135.972656 153.253906 136.230469 151.519531 136.355469 C 147.117188 136.679688 141.734375 138.277344 139.316406 141.347656 " fill-opacity="1" fill-rule="nonzero"/></g></g></g></g><g clip-path="url(#f4215cd3eb)"><g clip-path="url(#d6ee1ce223)"><g clip-path="url(#c80763d47d)"><g clip-path="url(#536c5f0c16)"><path fill="#e8090c" d="M 129.125 240.433594 C 129.125 240.433594 134.863281 232.078125 120.65625 202.53125 C 119.519531 200.167969 118.8125 197.609375 118.898438 194.988281 C 119.207031 185.203125 124.210938 176.398438 128.320312 170.761719 C 129.160156 169.613281 130.949219 170.542969 130.5 171.894531 C 127.332031 181.464844 125.8125 197.054688 140.382812 208.457031 C 140.382812 208.457031 136.324219 197.273438 141.148438 190.902344 C 141.703125 190.175781 142.683594 190.554688 142.988281 191.417969 C 144.890625 196.777344 145.996094 197.761719 148.636719 203.335938 C 151.808594 210.03125 148.960938 232.089844 129.125 240.433594 " fill-opacity="1" fill-rule="nonzero"/></g></g></g></g><g clip-path="url(#934b2a2429)"><g clip-path="url(#98b39c76bf)"><g clip-path="url(#1599f2fefa)"><g clip-path="url(#b595c59253)"><path fill="#e8090c" d="M 133.386719 200.261719 C 133.386719 200.261719 125.164062 189.621094 131.628906 172.910156 C 131.972656 172.023438 133.253906 172.023438 133.5625 172.925781 C 133.832031 173.710938 133.730469 175.195312 132.882812 178 C 130.738281 185.132812 130.007812 194.582031 133.386719 200.261719 " fill-opacity="1" fill-rule="nonzero"/></g></g></g></g><g clip-path="url(#e7168cd2cf)"><g clip-path="url(#3cf3c2c622)"><g clip-path="url(#7fe9fb6806)"><g clip-path="url(#ac1389ea90)"><path fill="#e8090c" d="M 133.835938 200.230469 C 133.835938 200.230469 127.871094 191.070312 134.207031 177.949219 C 134.542969 177.253906 135.582031 177.339844 135.773438 178.085938 C 135.9375 178.742188 135.761719 179.9375 134.890625 182.15625 C 132.683594 187.796875 131.46875 195.40625 133.835938 200.230469 " fill-opacity="1" fill-rule="nonzero"/></g></g></g></g><g clip-path="url(#ba8554026b)"><g clip-path="url(#fb49eb510a)"><g clip-path="url(#acd691251f)"><g clip-path="url(#60415caf20)"><path fill="#e8090c" d="M 134.285156 199.972656 C 134.285156 199.972656 130.453125 192.992188 135.777344 183.816406 C 136.0625 183.328125 136.8125 183.449219 136.90625 184.003906 C 136.992188 184.488281 136.796875 185.347656 136.042969 186.910156 C 134.128906 190.882812 132.828125 196.339844 134.285156 199.972656 " fill-opacity="1" fill-rule="nonzero"/></g></g></g></g></svg>